HIERARCHY
ROOT Hips
{
	OFFSET -14.64140 90.27770 -84.91600
	CHANNELS 6 Xposition Yposition Zposition Zrotation Xrotation Yrotation
	JOINT Spine
	{
		OFFSET 0.00000 13.20850 -1.60436
		CHANNELS 3 Zrotation Xrotation Yrotation
		JOINT Spine1
		{
			OFFSET 0.00000 8.61716 0.00000
			CHANNELS 3 Zrotation Xrotation Yrotation
			JOINT Spine2
			{
				OFFSET 0.00000 8.61717 0.00000
				CHANNELS 3 Zrotation Xrotation Yrotation
				JOINT Spine3
				{
					OFFSET 0.00000 8.61717 0.00000
					CHANNELS 3 Zrotation Xrotation Yrotation
					JOINT Neck
					{
						OFFSET 0.00000 11.07920 1.10792
						CHANNELS 3 Zrotation Xrotation Yrotation
						JOINT Neck1
						{
							OFFSET 0.00000 7.08032 0.00000
							CHANNELS 3 Zrotation Xrotation Yrotation
							JOINT Head
							{
								OFFSET 0.00000 7.08031 0.00000
								CHANNELS 3 Zrotation Xrotation Yrotation
								End site
								{
									OFFSET 0.00000 0.00000 0.00000
								}
							}
						}
					}
					JOINT RightShoulder
					{
						OFFSET -0.01000 7.91373 5.19711
						CHANNELS 3 Zrotation Xrotation Yrotation
						JOINT RightArm
						{
							OFFSET -18.41580 0.00000 0.00000
							CHANNELS 3 Zrotation Xrotation Yrotation
							JOINT RightForeArm
							{
								OFFSET -29.11090 0.00000 0.00000
								CHANNELS 3 Zrotation Xrotation Yrotation
								JOINT RightHand
								{
									OFFSET -24.65040 0.00000 0.00000
									CHANNELS 3 Zrotation Xrotation Yrotation
									JOINT RightHandThumb1
									{
										OFFSET -5.35114 -0.85590 3.97906
										CHANNELS 3 Zrotation Xrotation Yrotation
										JOINT RightHandThumb2
										{
											OFFSET -4.52789 0.00000 0.00000
											CHANNELS 3 Zrotation Xrotation Yrotation
											JOINT RightHandThumb3
											{
												OFFSET -2.46976 0.00000 0.00000
												CHANNELS 3 Zrotation Xrotation Yrotation
												End site
												{
													OFFSET 0.00000 0.00000 0.00000
												}
											}
										}
									}
									JOINT RightHandIndex1
									{
										OFFSET -14.26970 0.00000 2.88139
										CHANNELS 3 Zrotation Xrotation Yrotation
										JOINT RightHandIndex2
										{
											OFFSET -5.48836 0.00000 0.00000
											CHANNELS 3 Zrotation Xrotation Yrotation
											JOINT RightHandIndex3
											{
												OFFSET -3.01859 0.00000 0.00000
												CHANNELS 3 Zrotation Xrotation Yrotation
												End site
												{
													OFFSET 0.00000 0.00000 0.00000
												}
											}
										}
									}
									JOINT RightHandMiddle1
									{
										OFFSET -14.26970 0.00000 -0.09147
										CHANNELS 3 Zrotation Xrotation Yrotation
										JOINT RightHandMiddle2
										{
											OFFSET -6.17441 0.00000 0.00000
											CHANNELS 3 Zrotation Xrotation Yrotation
											JOINT RightHandMiddle3
											{
												OFFSET -3.56743 0.00000 0.00000
												CHANNELS 3 Zrotation Xrotation Yrotation
												End site
												{
													OFFSET 0.00000 0.00000 0.00000
												}
											}
										}
									}
									JOINT RightHandRing1
									{
										OFFSET -12.69180 0.00000 -3.06433
										CHANNELS 3 Zrotation Xrotation Yrotation
										JOINT RightHandRing2
										{
											OFFSET -5.62556 0.00000 0.00000
											CHANNELS 3 Zrotation Xrotation Yrotation
											JOINT RightHandRing3
											{
												OFFSET -3.56744 0.00000 0.00000
												CHANNELS 3 Zrotation Xrotation Yrotation
												End site
												{
													OFFSET 0.00000 0.00000 0.00000
												}
											}
										}
									}
									JOINT RightHandPinky1
									{
										OFFSET -11.11390 0.00000 -6.03719
										CHANNELS 3 Zrotation Xrotation Yrotation
										JOINT RightHandPinky2
										{
											OFFSET -4.52789 0.00000 0.00000
											CHANNELS 3 Zrotation Xrotation Yrotation
											JOINT RightHandPinky3
											{
												OFFSET -2.46976 0.00000 0.00000
												CHANNELS 3 Zrotation Xrotation Yrotation
												End site
												{
													OFFSET 0.00000 0.00000 0.00000
												}
											}
										}
									}
								}
							}
						}
					}
					JOINT LeftShoulder
					{
						OFFSET 0.01000 7.91373 5.19711
						CHANNELS 3 Zrotation Xrotation Yrotation
						JOINT LeftArm
						{
							OFFSET 18.41580 0.00000 0.00000
							CHANNELS 3 Zrotation Xrotation Yrotation
							JOINT LeftForeArm
							{
								OFFSET 29.11090 0.00000 0.00000
								CHANNELS 3 Zrotation Xrotation Yrotation
								JOINT LeftHand
								{
									OFFSET 24.65040 0.00000 0.00000
									CHANNELS 3 Zrotation Xrotation Yrotation
									JOINT LeftHandThumb1
									{
										OFFSET 5.35114 -0.85590 3.97906
										CHANNELS 3 Zrotation Xrotation Yrotation
										JOINT LeftHandThumb2
										{
											OFFSET 4.52789 0.00000 0.00000
											CHANNELS 3 Zrotation Xrotation Yrotation
											JOINT LeftHandThumb3
											{
												OFFSET 2.46977 0.00000 0.00000
												CHANNELS 3 Zrotation Xrotation Yrotation
												End site
												{
													OFFSET 0.00000 0.00000 0.00000
												}
											}
										}
									}
									JOINT LeftHandIndex1
									{
										OFFSET 14.26970 0.00000 2.88139
										CHANNELS 3 Zrotation Xrotation Yrotation
										JOINT LeftHandIndex2
										{
											OFFSET 5.48836 0.00000 0.00000
											CHANNELS 3 Zrotation Xrotation Yrotation
											JOINT LeftHandIndex3
											{
												OFFSET 3.01859 0.00000 0.00000
												CHANNELS 3 Zrotation Xrotation Yrotation
												End site
												{
													OFFSET 0.00000 0.00000 0.00000
												}
											}
										}
									}
									JOINT LeftHandMiddle1
									{
										OFFSET 14.26970 0.00000 -0.09147
										CHANNELS 3 Zrotation Xrotation Yrotation
										JOINT LeftHandMiddle2
										{
											OFFSET 6.17440 0.00000 0.00000
											CHANNELS 3 Zrotation Xrotation Yrotation
											JOINT LeftHandMiddle3
											{
												OFFSET 3.56744 0.00000 0.00000
												CHANNELS 3 Zrotation Xrotation Yrotation
												End site
												{
													OFFSET 0.00000 0.00000 0.00000
												}
											}
										}
									}
									JOINT LeftHandRing1
									{
										OFFSET 12.69180 0.00000 -3.06433
										CHANNELS 3 Zrotation Xrotation Yrotation
										JOINT LeftHandRing2
										{
											OFFSET 5.62556 0.00000 0.00000
											CHANNELS 3 Zrotation Xrotation Yrotation
											JOINT LeftHandRing3
											{
												OFFSET 3.56744 0.00000 0.00000
												CHANNELS 3 Zrotation Xrotation Yrotation
												End site
												{
													OFFSET 0.00000 0.00000 0.00000
												}
											}
										}
									}
									JOINT LeftHandPinky1
									{
										OFFSET 11.11390 0.00000 -6.03719
										CHANNELS 3 Zrotation Xrotation Yrotation
										JOINT LeftHandPinky2
										{
											OFFSET 4.52789 0.00000 0.00000
											CHANNELS 3 Zrotation Xrotation Yrotation
											JOINT LeftHandPinky3
											{
												OFFSET 2.46976 0.00000 0.00000
												CHANNELS 3 Zrotation Xrotation Yrotation
												End site
												{
													OFFSET 0.00000 0.00000 0.00000
												}
											}
										}
									}
								}
							}
						}
					}
					JOINT pCube4
					{
						OFFSET 0.00000 10.91090 1.10792
						CHANNELS 3 Zrotation Xrotation Yrotation
						End site
						{
							OFFSET 0.00000 0.00000 0.00000
						}
					}
				}
			}
		}
	}
	JOINT RightUpLeg
	{
		OFFSET -9.98441 0.00000 0.00000
		CHANNELS 3 Zrotation Xrotation Yrotation
		JOINT RightLeg
		{
			OFFSET 0.00000 -42.11790 0.00000
			CHANNELS 3 Zrotation Xrotation Yrotation
			JOINT RightFoot
			{
				OFFSET 0.00000 -45.00020 -0.00001
				CHANNELS 3 Zrotation Xrotation Yrotation
				JOINT RightForeFoot
				{
					OFFSET 0.00000 -3.74820 0.00000
					CHANNELS 3 Zrotation Xrotation Yrotation
					JOINT RightToeBase
					{
						OFFSET 0.00000 0.06325 14.43120
						CHANNELS 3 Zrotation Xrotation Yrotation
						End site
						{
							OFFSET 0.00000 0.00000 0.00000
						}
					}
				}
			}
		}
	}
	JOINT LeftUpLeg
	{
		OFFSET 9.98441 0.00000 0.00000
		CHANNELS 3 Zrotation Xrotation Yrotation
		JOINT LeftLeg
		{
			OFFSET 0.00000 -42.11800 0.00000
			CHANNELS 3 Zrotation Xrotation Yrotation
			JOINT LeftFoot
			{
				OFFSET 0.00000 -45.00070 0.00000
				CHANNELS 3 Zrotation Xrotation Yrotation
				JOINT LeftForeFoot
				{
					OFFSET 0.00000 -3.74824 0.00000
					CHANNELS 3 Zrotation Xrotation Yrotation
					JOINT LeftToeBase
					{
						OFFSET 0.00000 0.06325 14.43110
						CHANNELS 3 Zrotation Xrotation Yrotation
						End site
						{
							OFFSET 0.00000 0.00000 0.00000
						}
					}
				}
			}
		}
	}
}
MOTION
Frames: 4
Frame Time: 0.050000
-0.029443447893052928 -0.009434237140845902 -0.0034710140122661964 0.014754319571273086 -0.01033613729664637 -0.002089573142784032 -3.1828367352056643 0.454910991067739 -0.7262604226022187 -1.0894703436958018 3.8620139545368377 0.43511021154819657 -1.3252468699787467 -2.1009389375473977 -0.9842673664181282 -0.4595711529963291 0.48865700049604804 -0.7499851743742555 -0.5129368362645471 13.321630008259762 2.3988199323212744 0.39919720274649617 0.17623119862602088 4.35164227395391 -0.08343173423792372 -14.693396590705444 0.3822592190753632 -4.942938579409979 1.7357543504811188 -15.327384360583764 73.34700441753928 19.83844374307937 -0.9373362964073563 2.750127376229684 2.461217924560705 42.091508282617674 23.245518734527277 -0.18991436178447596 -4.1882579335112 4.559585134825587 -0.12121815753806486 -1.6119273090133088 -0.0034742990891985836 -0.036950975995373246 -56.229126642199546 -0.02016213999400744 -0.019308297145165524 -56.2239690713699 -38.78473921413955 0.002607137733398264 -0.008171231776869764 -0.033823940352457296 0.043778872794285745 0.008624234908029736 0.027548463323083753 -0.011924937351196357 0.03689493838146097 -36.69213663329494 -0.010852689286815254 -0.01618059742616445 -0.001824234098305106 0.041896530415010416 -0.017047414741196962 0.021162801401776694 0.016320570216750204 0.015376704121790163 -19.755473361930598 -0.035688610397100945 -0.03562058170096353 0.021872377811148473 -0.04005081795454341 -0.019102597374503243 0.020036115738611453 -0.04889357466218612 -0.03312487603766398 24.015614461941098 -0.020139252604921127 -0.009237354560675008 28.865024618345856 0.04081696690694323 0.019606969820349037 28.859795145060524 0.03256350934587977 -0.036010291134377335 6.256936763492322 1.407676836060778 13.859454714442167 -72.60428666644246 25.41377747448497 -4.129143465511243 -0.7051557192190435 -11.192468771051587 -42.41427680574051 -9.450373543266386 -0.305122834892253 3.1392006283771767 -0.46646824426733235 0.023190783685314555 -8.123484665054322 -0.031043093628537497 -0.00467686733446595 44.585837166341015 -0.00821194730239852 -0.0488940529817114 44.58144263870671 12.476215764429572 0.025419379185475165 -0.01183160708232139 -0.016593770335839347 0.030204788447463486 0.029223577147021024 0.00011001607512561402 0.04687567437687371 0.00700452266255432 11.093738038818215 -0.03295611748191602 0.022314212755380744 -0.0031753543105969696 -0.02957866470055189 -0.03539036191260228 0.014230443464303136 -0.017698410530720313 0.03276894398321217 4.7496922113887905 -0.039783931760650856 -0.0075540062793966415 -0.012667018117888739 -0.035274296041189944 -0.002832481481733981 -0.014536244027242377 0.03947132375163879 -0.03190559755510334 -5.59435552498724 -0.029203143399667213 0.02020438258725357 -6.742137852496991 -0.013781821410139578 0.007842491596830961 -6.705872876581823 -0.03517028707606257 0.04566385295465572 -0.045019584616795505 -0.043485975618353254 -0.017303300659375857 8.068371523861073 3.5130590680214904 -19.195337000561388 -0.0163585289031302 10.399287275093629 -0.014838300942024093 -5.629075324016485 -15.670296819865264 3.1465772410321717 0.03193991151135098 -0.023210268154344814 0.020128998805096263 -0.04806299924206347 4.658756159703275 -0.003996052942085922 12.453733131180774 -8.213888765014715 6.877086963456666 -0.017559615545846872 46.390710053338715 -0.012298607330209 -4.34175882491912 -14.699530717163764 -3.7909728175018516 0.024447312898469537 -0.0078708028901432 0.0482866418171328 0.03831354551460878 -10.708264619126988 -0.026489877444442974 
0.024725621024168202 0.017422961285195635 0.027721157973216056 0.013233923219226422 -0.01384997242680086 -0.026386344792076456 -3.197929943315971 0.48406823002707844 -0.7037534547800366 -1.1053362578799835 3.8605283906922447 0.44021030052264903 -1.2675602679872164 -2.0886431846050724 -1.0968691454826782 -0.41210507499665366 0.5662477887303958 -0.7898358164523686 -0.6352983250163013 13.4261692684976 2.482592010906768 0.3827967204508472 0.10573064460095478 4.657850245993066 -0.16402003635971485 -14.762856513874134 0.3742530127317488 -5.142922117543698 1.8300498158804681 -15.18107932438975 72.63054895455087 20.11084112653777 -0.42453292044894947 2.515985367072788 1.9736107092934414 42.82409588002751 22.84970220908892 -0.18912340697799856 -4.223140965323567 4.486338529743064 -0.12851170006777224 -1.633642943089668 0.026477394220656796 0.033924964820911827 -56.238930540343915 -0.015099249809979239 0.01695963138082784 -56.224864426703846 -38.73697679763629 0.02372785487003175 0.03245951594517971 -0.01515865214507089 0.016788907403345595 -0.023957341258287853 0.03082586757998182 -0.036101241216387456 0.020132398665756997 -36.72756935849521 0.031498665378224176 -0.04428771659773122 0.03702102841970909 -0.04465160623349986 0.012124867815316288 -0.044123983992481 -0.03520267296137778 -0.023355251872871335 -19.781568111132724 0.013570309449698044 0.04749719294540518 -0.004125912340113135 -0.028051955646347083 -0.004578764628792926 0.007185158036057672 -0.009315796795226228 0.028732426520720663 24.04962549268703 0.02579665908942783 0.0013743744147348901 28.894230931417333 0.04593101639372239 0.04085443476570305 28.87811223417224 -0.03732761900197979 -0.014841714184880821 6.654696480499419 1.4725775641821865 13.727171404839046 -72.1318443547809 24.186962287139433 -5.609486229448484 -0.4604733093921863 -11.670394171299792 -43.376474402160525 -8.411829049392056 0.08115188638109636 2.8215329742020487 -0.47189709018604303 0.04840767825708556 -8.096060286727083 0.022430931004248464 0.0443058321685077 44.597850212169746 0.00852061645819879 0.03351164427294684 44.57462194389337 12.42594470206476 -0.04820706785555945 0.03237519147927771 -0.038248671571054556 -0.03803593987315185 0.035509691621773774 0.003248370651373719 -0.029311941763291854 -0.017847549872325636 11.067049767019492 0.04167893291183304 0.030562272568779962 -0.030422446927674398 0.0261966868539045 -0.03350064373825224 0.022500723234743572 -0.03912406232715331 0.03986279037286141 4.765832282404214 -0.029749200492795107 0.01102568994592327 0.01674338806225037 -0.0027741735697121893 -0.008897309612459322 -0.008680036509204124 0.0258619401115399 -0.043679504173528436 -5.629934303785092 -0.02672774095304291 -0.03443086666248953 -6.726314098378715 0.000777665336208644 0.007586007185596265 -6.726026156091707 -0.012708139555796673 -0.004870176137838642 0.01478414014254024 -0.005754087540834145 0.0038121932765156183 8.054896047773104 3.4775983903603778 -19.180510667260798 -0.01959088113685086 10.38215425902336 0.005788700035288977 -5.613350235327061 -15.615766415665282 3.175530610755311 0.005337225410060387 0.03664827520598086 -0.014257842493069857 0.009814272947293716 4.691375245086848 0.030662992870606132 12.438765776293138 -8.236164323261448 6.883497219717773 -0.0003895699462922081 46.40174003259696 -0.003246642520220811 -4.304535266386244 -14.703818548690457 -3.8134691279954938 -0.001345243757348675 0.03583529434527377 -0.014894552507094322 0.0016282008617047301 -10.698168260606163 -0.0332319350262134 
-0.01926829057067662 0.003495957209792854 0.023884888529581802 -0.012535786354650375 0.034344563295379486 -0.009457821432229068 -3.1892509323799834 0.5315737015950478 -0.6833826456062745 -1.1967749745733351 3.807207466660305 0.4360725804232551 -1.3020550832941593 -2.1228124695816337 -1.3027289214943445 -0.5201594538860571 0.5277608972233645 -0.8072974330014467 -0.7610140352634348 13.628575471297035 2.9668395753131613 0.3662617529802548 0.12141338710782412 5.809084121022611 -0.35329379687058626 -14.82757132897856 0.45532667976953084 -5.352788224714384 1.8666917319510812 -15.114687463501555 71.74983883326715 20.043013562699606 -0.40582969087860815 2.2536895064945344 1.3325285854634505 43.29095834475414 22.61291351688124 -0.19713890387074867 -4.258349273460334 4.543883939868252 -0.11835849969289809 -1.5677958930901998 -0.0032204113659183593 -0.04457187062535958 -56.23487966369861 0.0066073218653368215 0.013654750382909664 -56.26742385165178 -38.763149833446946 -0.029044089030167503 0.009997784865797887 -0.029892579034987585 0.033923921861068594 -0.003081242674687635 0.020010148213960594 -0.005071524612265222 0.033228566989746654 -36.64414043786547 -0.010981530961519503 -0.023557823890462386 -0.044755164775863436 0.02093505113814964 -0.028061516018544688 0.005948515840316427 -0.03925112609726988 0.007884321039338595 -19.764360874829055 -0.015356468946721012 -0.026486195055540864 0.04171018529903654 0.004822805058787207 0.009358310705586787 -0.02465738406974011 0.006268500456904338 -0.027336758452662754 24.0358770497239 -0.02706743730979701 -0.013448003123751908 28.856487492791747 -0.008966693732984162 0.011564162692044713 28.912003403077883 0.027251092335386036 -0.0048798835492088995 7.33936154412906 1.5993867097201666 13.738165950515318 -71.61487828306818 22.888469354021574 -7.638408292205815 0.32139861384878676 -12.570105089943748 -44.29024621237844 -7.296967197413233 0.39090995395250716 2.6349898647003913 -0.5086422883852812 0.10114798298996228 -8.120778112238687 -0.016285479670261473 -0.020023581673310586 44.56121160476752 0.01189866647275107 0.01250189409397285 44.5371678514114 12.452723152294087 -0.026127420590111243 -0.020448179283431428 -0.011827019218760105 0.031088181757647153 -0.00042490279225306 -0.024073521192575192 -0.031749836500925575 -0.0184377373526707 11.10165832254283 0.004636859268639005 0.002533901371698087 -0.02847952355142171 -0.010200170493666689 0.011893454555075057 0.026847454886771746 0.037137596015723195 -0.014176456264610062 4.749950800261438 0.03833970564809071 -0.036881700389886835 0.006462578254092743 -0.009505764964458353 -0.030358236834387847 0.04572791773760452 0.014543462568213152 0.016110403422715944 -5.614311786113894 0.010227633522686543 0.02516355884214751 -6.755329342985818 -0.03330887004993948 0.005755841295894558 -6.671658842525375 -0.03645670806216187 -0.021273542396939807 0.023031815400656405 -0.02040062041315052 -0.0260772567661131 8.044033481356244 3.512959262811801 -19.25261335392166 0.04661004570226089 10.418160257910717 -0.018997920243755465 -5.6352498659017085 -15.692897599693845 3.1989436866049696 -0.02429719107978983 -0.0034144505346011644 0.026774516010958545 -0.015882486911421943 4.692706109620153 0.022490278526235905 12.502839242105956 -8.198006647782423 6.899961032672868 -0.0452642858010033 46.381058417907184 0.013914185838488854 -4.3107914241475465 -14.752673055248833 -3.8677989958292818 0.02983186613076787 0.013700047667308991 -0.014971503881216437 -0.03231535377343368 -10.73780690050639 -0.02248717031062289 
0.010709036647778452 -0.02496479004683522 0.009879215649586636 0.01852451915667033 0.0109684704813437 0.04153882747778006 -3.1208738661652626 0.6043938704445644 -0.6741145049523329 -1.1517186710683827 3.8420157669306474 0.428549087832898 -1.2782681991338603 -2.163247190042066 -1.4114710566881519 -0.5389621102211332 0.5571915209617679 -0.8308495426583578 -0.9640982046167342 13.949738632717192 3.4745830117173333 0.3064022549126693 0.3559127727549283 7.05668078763307 -0.5771050600187884 -14.612288757214225 0.57044253299742 -5.621050033048054 1.9566747829663582 -15.00891959569792 70.63057649177823 20.139134863601754 -0.04696927902239735 2.3583496366642844 0.8428779430264608 44.45453211738937 22.468713803584297 -0.17665189732640202 -4.320186757982943 4.55152379232694 -0.10944844346193923 -1.60939777895234 0.02082821054007375 -0.0004092268724870062 -56.24179011804632 -0.04204608383963367 -0.0014607641934617382 -56.19116862221787 -38.75024041824664 0.0026343243837513674 -0.005718247716924512 -0.008621825625229947 -0.002658855149936776 0.019949988159030256 -0.027885691038201852 0.042639996453958086 0.0009404706384482366 -36.666175517882415 -0.04551987721908825 0.004139226578667534 0.02878738304870145 -0.01990327348597742 -0.014752408791734941 -0.003307298127674674 0.004364307144190068 -0.003047188721382327 -19.78753375444395 0.0027113501480415655 -0.003460607500902105 -0.019703867604828784 -0.00018004632346350452 0.000782613874865977 -0.03875763449554511 -0.0011461764013165356 -0.04580070430888802 24.092783064442713 0.03453807154576695 -0.03210289583703103 28.841669836563813 0.013505567036095505 0.02901849872619939 28.826030973449708 0.028220915602242203 -0.03408630895310834 8.206137425863187 1.7188550080246614 13.653263707253444 -70.8835271173315 20.91452497713643 -10.234105684007778 0.6560824160593175 -13.242483554748222 -46.166133702256786 -6.121610192506596 0.8135705081419128 2.382322696293338 -0.4269282432280042 0.09325222276120208 -8.154283287936394 0.026106264402694812 -0.04013555167743646 44.554627911607255 0.004618096747663752 -0.008052842991567019 44.593632571914846 12.458556623985892 0.017865178757852634 0.04836227163175376 0.0007494186384690669 0.012290055701740273 0.035322811977630514 0.04645298818603834 -0.009302182313198036 -0.0340537966964751 11.106495254260075 -0.0064125772889228865 -0.016261161648005115 0.04920926887133892 0.022294177132372372 -0.013615503082094863 -0.01834547881310691 0.030818821543029274 0.02085770418966299 4.786179037230727 -0.014989807833109563 0.028370366488640716 0.005413947432282337 0.020484780643827402 -0.017463968183869135 -0.028960502192915478 0.0029534156792344226 -0.006326144022858143 -5.5544608812778025 -0.007066876776911579 -0.030215598000603472 -6.697346673337178 0.0371035016748701 -0.024501956130592518 -6.746530812533743 0.03480262412239223 -0.009723304829454904 -0.029779362774027658 -0.04040140172919205 0.011021718529086873 8.010030143572141 3.5305433603609386 -19.208540364794267 -0.04653230125016122 10.388921689404043 0.009319918153517733 -5.57155627308685 -15.674925790157255 3.157217978303648 0.008691992182908177 -0.03842787705240824 -0.02265366863651312 0.023494093363743192 4.717707520605974 0.02416928945093225 12.500661085273787 -8.228039421750774 6.906905109126153 -0.04914323841307561 46.4199290900121 -0.040524061460086074 -4.346226623915732 -14.704772841514204 -3.8772062952650854 -0.04863496682857107 0.0462828846133966 0.037885139291838434 0.026133729401185114 -10.728744225138355 0.0008417038160332945 
